<svg width="14" height="12" viewBox="0 0 14 12" fill="none" xmlns="http://www.w3.org/2000/svg">
<g clip-path="url(#clip0_1_111)">
<path fill-rule="evenodd" clip-rule="evenodd" d="M13.1981 6.38234C13.2991 6.13734 13.2991 5.86234 13.1981 5.61734C13.1471 5.49534 13.0741 5.38434 12.9821 5.29234L8.04612 0.357337C7.65612 -0.0336631 7.02312 -0.0336631 6.63212 0.357337C6.24112 0.747337 6.24112 1.38034 6.63212 1.77134L9.86112 5.00034H1.72412C1.17212 5.00034 0.724121 5.44734 0.724121 6.00034C0.724121 6.55234 1.17212 7.00034 1.72412 7.00034H9.86112L6.63212 10.2293C6.24112 10.6193 6.24112 11.2523 6.63212 11.6433C6.82712 11.8383 7.08312 11.9363 7.33912 11.9363C7.59512 11.9363 7.85112 11.8383 8.04612 11.6433L12.9821 6.70734C13.0741 6.61534 13.1471 6.50434 13.1981 6.38234Z" fill="#1E1D1D"/>
</g>
<defs>
<clipPath id="clip0_1_111">
<rect width="14" height="12" fill="white"/>
</clipPath>
</defs>
</svg>
