<svg width="14" height="12" viewBox="0 0 14 12" fill="none" xmlns="http://www.w3.org/2000/svg">
<g clip-path="url(#clip0_1_326)">
<path fill-rule="evenodd" clip-rule="evenodd" d="M13.1981 6.38228C13.2991 6.13728 13.2991 5.86228 13.1981 5.61728C13.1471 5.49528 13.0741 5.38428 12.9821 5.29228L8.04612 0.357276C7.65612 -0.0337241 7.02312 -0.0337241 6.63212 0.357276C6.24112 0.747276 6.24112 1.38028 6.63212 1.77128L9.86112 5.00028H1.72412C1.17212 5.00028 0.724121 5.44728 0.724121 6.00028C0.724121 6.55228 1.17212 7.00028 1.72412 7.00028H9.86112L6.63212 10.2293C6.24112 10.6193 6.24112 11.2523 6.63212 11.6433C6.82712 11.8383 7.08312 11.9363 7.33912 11.9363C7.59512 11.9363 7.85112 11.8383 8.04612 11.6433L12.9821 6.70728C13.0741 6.61528 13.1471 6.50428 13.1981 6.38228Z" fill="white"/>
</g>
<defs>
<clipPath id="clip0_1_326">
<rect width="14" height="12" fill="white"/>
</clipPath>
</defs>
</svg>
