<svg width="83" height="70" viewBox="0 0 83 70" fill="none" xmlns="http://www.w3.org/2000/svg">
<path fill-rule="evenodd" clip-rule="evenodd" d="M69.1428 0.255798H14.2857C6.71084 0.255798 0.571411 4.12907 0.571411 8.90696V60.8139C0.571411 65.5918 6.71084 69.4651 14.2857 69.4651H69.1428C76.7177 69.4651 82.8571 65.5918 82.8571 60.8139V8.90696C82.8571 4.12907 76.7177 0.255798 69.1428 0.255798ZM30.2857 1.69766H55.4286V21.1628C55.4286 21.2454 55.3508 21.4387 54.7863 21.719C54.2354 21.9929 53.3669 22.271 52.1943 22.518C49.856 23.0092 46.5554 23.3256 42.8571 23.3256C39.1588 23.3256 35.8583 23.0092 33.52 22.518C32.3474 22.271 31.4788 21.9929 30.928 21.719C30.3634 21.4387 30.2857 21.2454 30.2857 21.1628V1.69766ZM56.5714 22.6505C56.4525 22.7211 56.3291 22.7882 56.2011 22.8515C55.3645 23.2676 54.224 23.6109 52.9166 23.8859C50.2903 24.4381 46.7337 24.7674 42.8571 24.7674C38.9806 24.7674 35.424 24.4381 32.7977 23.8859C31.4903 23.6109 30.3497 23.2676 29.5131 22.8515C29.3851 22.7882 29.2617 22.7211 29.1428 22.6505C29.024 22.7211 28.9005 22.7882 28.7725 22.8515C27.936 23.2676 26.7954 23.6109 25.488 23.8859C22.8617 24.4381 19.3051 24.7674 15.4286 24.7674C11.552 24.7674 7.99541 24.4381 5.36912 23.8859C4.42969 23.6879 3.57484 23.4548 2.85713 23.1844V45.8156C3.57484 45.5452 4.42969 45.3121 5.36912 45.1141C7.99541 44.5619 11.552 44.2325 15.4286 44.2325C19.3051 44.2325 22.8617 44.5619 25.488 45.1141C26.7954 45.3891 27.936 45.7324 28.7725 46.1485C28.9005 46.2118 29.024 46.2788 29.1428 46.3495C29.2617 46.2788 29.3851 46.2118 29.5131 46.1485C30.3497 45.7324 31.4903 45.3891 32.7977 45.1141C35.424 44.5619 38.9806 44.2325 42.8571 44.2325C46.7337 44.2325 50.2903 44.5619 52.9166 45.1141C54.224 45.3891 55.3645 45.7324 56.2011 46.1485C57.0263 46.5583 57.7143 47.1235 57.7143 47.8372V68.0232H69.1428C75.4537 68.0232 80.5714 64.7955 80.5714 60.8139V23.837C77.904 24.4233 74.2468 24.7674 70.2857 24.7674C66.4091 24.7674 62.8525 24.4381 60.2263 23.8859C58.9188 23.6109 57.7783 23.2676 56.9417 22.8515C56.8137 22.7882 56.6903 22.7211 56.5714 22.6505ZM80.5714 22.2946C78.2583 22.9045 74.5554 23.3256 70.2857 23.3256C66.5874 23.3256 63.2868 23.0092 60.9485 22.518C59.776 22.271 58.9074 21.9929 58.3566 21.719C57.792 21.4387 57.7143 21.2454 57.7143 21.1628V1.69766H69.1428C75.4537 1.69766 80.5714 4.92541 80.5714 8.90696V22.2946ZM28 1.69766V21.1628C28 21.2454 27.9223 21.4387 27.3577 21.719C26.8068 21.9929 25.9383 22.271 24.7657 22.518C22.4274 23.0092 19.1268 23.3256 15.4286 23.3256C11.7303 23.3256 8.4297 23.0092 6.09141 22.518C4.91884 22.271 4.05026 21.9929 3.49941 21.719C2.93484 21.4387 2.85713 21.2454 2.85713 21.1628V8.90696C2.85713 4.92541 7.97484 1.69766 14.2857 1.69766H28ZM55.4286 68.0232V47.8372C55.4286 47.7546 55.3508 47.5612 54.7863 47.2809C54.2354 47.0071 53.3669 46.729 52.1943 46.482C49.856 45.9907 46.5554 45.6744 42.8571 45.6744C39.1588 45.6744 35.8583 45.9907 33.52 46.482C32.3474 46.729 31.4788 47.0071 30.928 47.2809C30.3634 47.5612 30.2857 47.7546 30.2857 47.8372V68.0232H55.4286ZM28 47.8372C28 47.7546 27.9223 47.5612 27.3577 47.2809C26.8068 47.0071 25.9383 46.729 24.7657 46.482C22.4274 45.9907 19.1268 45.6744 15.4286 45.6744C11.7303 45.6744 8.4297 45.9907 6.09141 46.482C4.91884 46.729 4.05026 47.0071 3.49941 47.2809C2.93484 47.5612 2.85713 47.7546 2.85713 47.8372V60.8139C2.85713 64.7955 7.97484 68.0232 14.2857 68.0232H28V47.8372Z" fill="url(#paint0_linear_1_69)"/>
<defs>
<linearGradient id="paint0_linear_1_69" x1="41.7143" y1="0.255798" x2="41.7143" y2="69.4651" gradientUnits="userSpaceOnUse">
<stop stop-color="#A8A8A6"/>
<stop offset="0.494792" stop-color="#CFCFCE"/>
<stop offset="1" stop-color="#A8A8A6"/>
</linearGradient>
</defs>
</svg>
